<svg xmlns="http://www.w3.org/2000/svg" style="display:none;">
    <!-- REQUESTS -->
    <!--    SEE COMMENTS -->
    <symbol id="see_comments" viewBox="0 0 24 24">
        <path fill="white" d="M16 6c.56 0 1 .44 1 1s-.44 1-1 1s-1-.44-1-1s.44-1 1-1m0-3c2.73 0 5.06 1.66 6 4c-.94 2.34-3.27 4-6 4s-5.06-1.66-6-4c.94-2.34 3.27-4 6-4m0 1.5A2.5 2.5 0 0 0 13.5 7A2.5 2.5 0 0 0 16 9.5A2.5 2.5 0 0 0 18.5 7A2.5 2.5 0 0 0 16 4.5m2 8.25V16h-4.92L10 19.08V16H4V6h4.27c.32-.73.73-1.4 1.23-2H4a2 2 0 0 0-2 2v10a2 2 0 0 0 2 2h4v3a1 1 0 0 0 1 1h.5c.25 0 .5-.1.7-.29L13.9 18H18c1.11 0 2-.89 2-2v-4c-.63.33-1.3.58-2 .75Z"/>
    </symbol>
    <!--    ADD COMMENT -->
    <symbol id="add_comment" viewBox="0 0 24 24">
        <path fill="white" d="M9 22a1 1 0 0 1-1-1v-3H4a2 2 0 0 1-2-2V4a2 2 0 0 1 2-2h16a2 2 0 0 1 2 2v12a2 2 0 0 1-2 2h-6.1l-3.7 3.71c-.2.19-.45.29-.7.29H9m1-6v3.08L13.08 16H20V4H4v12h6m1-10h2v3h3v2h-3v3h-2v-3H8V9h3V6Z"/>
    </symbol>
    <!--    EDIT -->
    <symbol id="edit" viewBox="0 0 24 24">
        <path fill="white" d="m7 17.013l4.413-.015l9.632-9.54c.378-.378.586-.88.586-1.414s-.208-1.036-.586-1.414l-1.586-1.586c-.756-.756-2.075-.752-2.825-.003L7 12.583v4.43zM18.045 4.458l1.589 1.583l-1.597 1.582l-1.586-1.585l1.594-1.58zM9 13.417l6.03-5.973l1.586 1.586l-6.029 5.971L9 15.006v-1.589z"/><path fill="white" d="M5 21h14c1.103 0 2-.897 2-2v-8.668l-2 2V19H8.158c-.026 0-.053.01-.079.01c-.033 0-.066-.009-.1-.01H5V5h6.847l2-2H5c-1.103 0-2 .897-2 2v14c0 1.103.897 2 2 2z"/>
    </symbol>
    <!--    DELETE -->
    <symbol id="delete" viewBox="0 0 24 24">
        <path fill="white" d="M7 6V3a1 1 0 0 1 1-1h8a1 1 0 0 1 1 1v3h5v2h-2v13a1 1 0 0 1-1 1H5a1 1 0 0 1-1-1V8H2V6h5Zm6.414 8l1.768-1.768l-1.414-1.414L12 12.586l-1.768-1.768l-1.414 1.414L10.586 14l-1.768 1.768l1.414 1.414L12 15.414l1.768 1.768l1.414-1.414L13.414 14ZM9 4v2h6V4H9Z"/>
    </symbol>

    <!-- ACTIVITIES -->
    <!--    WAREHOUSE -->
    <symbol id="activity_property" viewBox="0 0 24 24">
        <path fill="currentColor" d="M4 19h2v-8h12v8h2V8.35l-8-3.2l-8 3.2V19Zm-2 2V7l10-4l10 4v14h-6v-8H8v8H2Zm7 0v-2h2v2H9Zm2-3v-2h2v2h-2Zm2 3v-2h2v2h-2ZM6 11h12H6Z"/>
    </symbol>
    <!--    REQUEST -->
    <symbol id="activity_request" viewBox="0 0 24 24">
        <path fill="black" d="m18.031 16.617l4.283 4.282l-1.415 1.415l-4.282-4.283A8.96 8.96 0 0 1 11 20c-4.968 0-9-4.032-9-9s4.032-9 9-9s9 4.032 9 9a8.96 8.96 0 0 1-1.969 5.617Zm-2.006-.742A6.977 6.977 0 0 0 18 11c0-3.867-3.133-7-7-7s-7 3.133-7 7s3.133 7 7 7a6.977 6.977 0 0 0 4.875-1.975l.15-.15Zm-3.847-8.699a2 2 0 1 0 2.646 2.646a4 4 0 1 1-2.646-2.646Z"/>
    </symbol>
    <!--    CONTACT -->
    <symbol id="activity_contact" viewBox="0 0 24 24">
        <path fill="black" d="M12 2A10.13 10.13 0 0 0 2 12a10 10 0 0 0 4 7.92V20h.1a9.7 9.7 0 0 0 11.8 0h.1v-.08A10 10 0 0 0 22 12A10.13 10.13 0 0 0 12 2zM8.07 18.93A3 3 0 0 1 11 16.57h2a3 3 0 0 1 2.93 2.36a7.75 7.75 0 0 1-7.86 0zm9.54-1.29A5 5 0 0 0 13 14.57h-2a5 5 0 0 0-4.61 3.07A8 8 0 0 1 4 12a8.1 8.1 0 0 1 8-8a8.1 8.1 0 0 1 8 8a8 8 0 0 1-2.39 5.64z"/><path fill="currentColor" d="M12 6a3.91 3.91 0 0 0-4 4a3.91 3.91 0 0 0 4 4a3.91 3.91 0 0 0 4-4a3.91 3.91 0 0 0-4-4zm0 6a1.91 1.91 0 0 1-2-2a1.91 1.91 0 0 1 2-2a1.91 1.91 0 0 1 2 2a1.91 1.91 0 0 1-2 2z"/>
    </symbol>
    <!--    DEAL -->
    <symbol id="activity_deal" viewBox="0 0 24 24">
        <path fill="black" d="M14 2H6c-1.1 0-2 .9-2 2v16c0 1.1.9 2 2 2h12c1.1 0 2-.9 2-2V8l-6-6zM6 20V4h7v4h5v12H6zm5-1h2v-1h1c.55 0 1-.45 1-1v-3c0-.55-.45-1-1-1h-3v-1h4v-2h-2V9h-2v1h-1c-.55 0-1 .45-1 1v3c0 .55.45 1 1 1h3v1H9v2h2v1z"/>
    </symbol>
    <!--    COMMENT ON-->
    <symbol id="activity_comment_on" viewBox="0 0 24 24">
        <path fill="black" d="M11 11h6a1 1 0 0 0 0-2h-6a1 1 0 0 0 0 2ZM7 9a1 1 0 1 0 1 1a1 1 0 0 0-1-1Zm0 4a1 1 0 1 0 1 1a1 1 0 0 0-1-1Zm5-11A10 10 0 0 0 2 12a9.89 9.89 0 0 0 2.26 6.33l-2 2a1 1 0 0 0-.21 1.09A1 1 0 0 0 3 22h9a10 10 0 0 0 0-20Zm0 18H5.41l.93-.93a1 1 0 0 0 .3-.71a1 1 0 0 0-.3-.7A8 8 0 1 1 12 20Zm5-7h-6a1 1 0 0 0 0 2h6a1 1 0 0 0 0-2Z"/>
    </symbol>
    <!--    ADD -->
    <symbol id="activity_add" viewBox="0 0 24 24">
        <path fill="black" d="M12 4c4.411 0 8 3.589 8 8s-3.589 8-8 8s-8-3.589-8-8s3.589-8 8-8m0-2C6.477 2 2 6.477 2 12s4.477 10 10 10s10-4.477 10-10S17.523 2 12 2zm5 9h-4V7h-2v4H7v2h4v4h2v-4h4v-2z"/>
    </symbol>
    <!--    CANCEL -->
    <symbol id="activity_cancel" viewBox="0 0 24 24">
        <path fill="currentColor" d="M12 2C6.47 2 2 6.47 2 12s4.47 10 10 10s10-4.47 10-10S17.53 2 12 2zm5 13.59L15.59 17L12 13.41L8.41 17L7 15.59L10.59 12L7 8.41L8.41 7L12 10.59L15.59 7L17 8.41L13.41 12L17 15.59z"/>
    </symbol>


</svg>


